<?xml version="1.0" encoding="utf-8"?>
<!-- Generator: Adobe Illustrator 28.0.0, SVG Export Plug-In . SVG Version: 6.00 Build 0)  -->
<svg version="1.1" id="Слой_1" xmlns="http://www.w3.org/2000/svg" xmlns:xlink="http://www.w3.org/1999/xlink" x="0px" y="0px"
	 viewBox="0 0 100 40" style="enable-background:new 0 0 100 40;" xml:space="preserve">
<style type="text/css">
	.st0{fill:#070708;}
	.st1{fill:#169038;}
</style>
<g>
	<path class="st0" d="M42.3,24.7c0,1-0.6,1.7-1.4,1.7c-0.7,0-1.4-0.6-1.4-1.6c-0.1-2.2,0-4.3-0.1-6.5c0-0.4,0-0.8-0.1-1.2
		c-0.3-1-1.2-1.4-2.2-0.8c-0.7,0.5-1,1.2-1.1,2c-0.2,1.9-0.1,3.8-0.1,5.8c0,0.2,0,0.3,0,0.5c0,1.1-0.6,1.9-1.4,1.9
		c-0.8,0-1.3-0.7-1.4-1.9c-0.1-2.3,0.1-4.7-0.1-7c-0.1-0.9-0.5-1.4-1.2-1.5c-0.8-0.1-1.6,0.3-1.9,1.1c-0.4,0.9-0.4,1.8-0.5,2.8
		c0,1.5,0,3,0,4.5c0,0.2,0,0.5,0,0.7c-0.1,0.8-0.7,1.3-1.3,1.3c-0.6,0-1.2-0.5-1.4-1.3c-0.1-0.3-0.1-0.5-0.1-0.8c0-2.9,0-5.8,0-8.7
		v-0.1c0-1.2,0.4-1.9,1.2-1.9c0.8-0.1,1.3,0.5,1.5,1.7c0.8-0.8,1.5-1.5,2.6-1.6c1.3-0.2,2.4,0.1,3.2,1.2c0.4,0.5,0.5,0.4,0.9,0
		c0.8-1,1.9-1.5,3.2-1.3c1.8,0.3,2.8,1.3,2.9,3.2C42.4,19.5,42.3,22.1,42.3,24.7z"/>
	<path class="st0" d="M76.2,18.3c-0.1-1.1-0.5-2.1-1.1-3c-1.3-1.8-3.8-2.2-5.6-0.9c-0.4,0.3-0.7,0.6-1.2,1c0-1.6,0-3.1,0-4.6
		c0-0.4-0.1-0.8-0.2-1.1c-0.2-0.5-0.5-0.8-1.1-0.8c-0.6,0-0.9,0.3-1.1,0.8c-0.2,0.5-0.2,1-0.2,1.4c0,4.4,0,8.8,0,13.2
		c0,0.4,0,0.8,0.1,1.1c0.1,0.6,0.5,1,1.1,1c0.6,0,1-0.3,1.2-0.9c0.1-0.3,0.1-0.6,0.2-1c0.2,0.2,0.3,0.3,0.4,0.4
		c1.9,2.2,4.9,1.9,6.4-0.5C76.4,22.5,76.5,20.4,76.2,18.3z M73,22.8c-1,1.6-3.1,1.6-4-0.1c-0.9-1.8-0.9-3.7,0.1-5.5
		c1-1.7,3-1.6,4,0.2c0.4,0.8,0.5,1.8,0.6,2.7C73.6,21,73.5,22,73,22.8z"/>
	<path class="st0" d="M88.5,17.7c-0.6-2.3-2.5-4-4.6-4c-2.8-0.1-4.7,1.1-5.5,3.6c-0.6,1.9-0.6,3.8,0.1,5.7c1.5,4.1,6.5,4.4,8.8,1.7
		c1.1-1.3,1.5-3,1.5-4.9C88.8,19.2,88.7,18.4,88.5,17.7z M85.4,22.9c-1,1.6-3.2,1.6-4-0.1c-0.9-1.8-0.9-3.8,0-5.6
		c0.9-1.7,3.1-1.7,4.1,0C85.9,18,86.1,19,86,20C86.1,21.1,85.9,22,85.4,22.9z"/>
	<path class="st0" d="M11.7,25.7c-2,1.1-4,1.1-6,0c-0.8-0.5-1.3-1.2-1.5-2.1C4,22.8,4.2,22,4.8,21.8C5.6,21.5,6,22,6.3,22.6
		c0.6,1.2,1.4,1.8,2.8,1.7c0.9-0.1,1.5-0.5,1.7-1.2c0.2-0.8-0.2-1.4-1.1-1.7c-1-0.4-2-0.7-3-1.1c-1.9-0.8-2.7-2.1-2.4-3.8
		c0.4-1.8,1.9-3,3.8-3c0.1,0,0.3,0,0.4,0c1.2,0,2.3,0.2,3.3,0.9c0.7,0.5,1.1,1.1,1.1,2c0,0.5-0.2,0.9-0.7,1.1
		c-0.5,0.2-0.9,0.1-1.3-0.3c-0.3-0.3-0.6-0.7-0.9-1.1c-0.7-0.8-1.7-0.9-2.6-0.5c-0.4,0.2-0.7,0.5-0.7,1c0,0.5,0.2,0.8,0.6,1.1
		c0.6,0.4,1.4,0.5,2.1,0.7c0.8,0.2,1.6,0.5,2.3,0.9C14,20.9,14,24.4,11.7,25.7z"/>
	<path class="st0" d="M96,26.2c-1,0.3-2,0.4-3,0.1c-1-0.3-1.6-1.2-1.7-2.6c0-0.4,0-0.8-0.1-1.2c0-0.8,0-1.5,0-2.3c0-1.1,0-2.2,0-3.3
		c0-0.4,0-0.7-0.5-0.7c-0.6,0-1-0.4-1-1c0-0.7,0.3-1.1,0.9-1.2c0.6,0,0.6-0.3,0.6-0.8c0-0.8,0-1.6,0-2.4c0.1-0.9,0.6-1.4,1.3-1.4
		c0.7,0,1.3,0.6,1.3,1.4c0,0.8,0.1,1.5,0,2.3c0,0.6,0.1,0.8,0.7,0.8c0.6-0.1,1.3,0.1,1.4,0.9c0.2,0.9-0.3,1.4-1.3,1.4
		c-0.8,0-0.9,0.2-0.9,0.9c0,1.7,0,3.3,0,5c0,0.3,0,0.7,0.1,1c0.1,0.9,0.5,1.1,1.4,0.9c1-0.2,1.5,0,1.6,0.7
		C97.3,25.3,96.9,25.9,96,26.2z"/>
	<path class="st1" d="M62.7,31.1c-0.5,0-1-0.3-1.3-0.8c-1.5-2.5-2.6-5.2-2.9-8.1c-0.1-0.8-0.2-1.5-0.1-2.2c-0.1-3.7,1-7,2.8-10
		c0.3-0.5,0.7-1.1,1.4-1.1c0.7,0,0.9,0.1,0.6,0.8c-0.5,1.2-0.9,2.4-1.3,3.7c-1.6,5.4-1.1,10.7,0.9,15.9c0.1,0.4,0.3,0.8,0.4,1.1
		C63.5,31,63.2,31.2,62.7,31.1z"/>
	<path class="st1" d="M49.5,20.2c0,3.4-1,6.7-2.8,9.7c-0.3,0.5-0.6,1-1.2,1.1c-0.3,0.1-0.7,0.2-0.9-0.1c-0.2-0.3,0-0.6,0.1-0.8
		c0.9-2,1.6-4.2,1.9-6.4c0.7-4.6,0.1-9-1.6-13.2c-0.1-0.2-0.2-0.4-0.3-0.7c-0.1-0.3-0.3-0.6-0.1-0.8c0.2-0.2,0.6-0.2,0.9-0.1
		c0.6,0.1,0.9,0.7,1.2,1.2C48.5,13.2,49.6,16.4,49.5,20.2z"/>
	<path class="st0" d="M18.5,24.4c0,1.2-0.6,2-1.4,2c-0.8,0-1.3-0.8-1.3-2c0-2.3,0-4.6,0-6.8c0-2.2,0-4.4,0-6.7c0-1.3,0.5-2,1.4-2
		c0.9,0,1.4,0.7,1.4,2C18.5,15.4,18.5,19.9,18.5,24.4z"/>
	<path class="st0" d="M24,24.8c0,1.2-1,2-1.9,1.5c-0.5-0.3-0.8-0.8-0.8-1.4c0-1.7,0-3.5,0-5.2c0-1.4,0-2.9,0-4.3
		c0-1.2,0.5-1.7,1.4-1.7c0.8,0,1.3,0.6,1.3,1.7c0,1.5,0,3.1,0,4.6h0C24,21.6,24,23.2,24,24.8z"/>
	<path class="st1" d="M55.5,24.7c0,0.9-0.8,1.8-1.6,1.8c-0.9,0-1.5-0.8-1.5-1.8c0-1,0.7-1.8,1.5-1.8C54.8,22.9,55.5,23.8,55.5,24.7z
		"/>
	<path class="st0" d="M24,10.6c0,0.9-0.5,1.5-1.3,1.5c-0.8,0-1.4-0.6-1.4-1.5c0-0.9,0.7-1.6,1.4-1.6C23.5,9.1,24,9.7,24,10.6z"/>
</g>
</svg>
